<svg xmlns="http://www.w3.org/2000/svg" xmlns:xlink="http://www.w3.org/1999/xlink" width="3500" zoomAndPan="magnify" viewBox="0 0 2625 899.99999" height="1200" preserveAspectRatio="xMidYMid meet" version="1.0"><defs><g/><clipPath id="2dfb4c86a8"><path d="M 224 249 L 735.980469 249 L 735.980469 789.75 L 224 789.75 Z M 224 249 " clip-rule="nonzero"/></clipPath><clipPath id="c3c762760b"><path d="M 24.980469 515 L 248 515 L 248 623 L 24.980469 623 Z M 24.980469 515 " clip-rule="nonzero"/></clipPath></defs><rect x="-262.5" width="3150" fill="#ffffff" y="-89.999999" height="1079.999988" fill-opacity="1"/><rect x="-262.5" width="3150" fill="#fffeff" y="-89.999999" height="1079.999988" fill-opacity="1"/><g clip-path="url(#2dfb4c86a8)"><path fill="#ffffff" d="M 735.332031 440.117188 C 735.332031 633.410156 578.632812 790.109375 385.339844 790.109375 C 327.179688 790.109375 272.359375 775.9375 224.105469 750.847656 C 230.222656 750.515625 236.339844 750.160156 242.457031 749.761719 C 324.691406 744.441406 403.421875 725.457031 476.890625 687.550781 C 536.300781 656.917969 587.117188 615.5 627.011719 561.488281 C 655.808594 522.496094 676.96875 479.851562 687.316406 432.128906 C 699.761719 374.722656 690.113281 321.085938 660.792969 270.625 C 659.628906 268.632812 658.273438 266.921875 660.902344 265.035156 C 662.128906 264.152344 663.183594 263.035156 664.324219 262.023438 C 669.09375 257.8125 673.886719 253.613281 678.777344 249.28125 C 714.539062 304.179688 735.332031 369.726562 735.332031 440.117188 Z M 735.332031 440.117188 " fill-opacity="1" fill-rule="evenodd"/></g><path fill="#ffffff" d="M 688.359375 138.691406 C 679.195312 136.453125 679.238281 136.472656 673.695312 144.140625 C 667.15625 153.175781 658.132812 157.925781 647.128906 160.035156 C 650.078125 152.496094 652.8125 145.507812 656 137.3125 C 649.21875 139.003906 643.597656 140.082031 638.191406 141.816406 C 633.34375 143.386719 628.691406 145.28125 624.246094 147.4375 C 615.339844 151.742188 607.167969 157.148438 599.46875 163.253906 C 592.425781 168.84375 585.769531 175.023438 579.34375 181.507812 C 579.265625 181.582031 579.160156 181.691406 579.0625 181.789062 C 574.152344 186.730469 569.285156 191.714844 564.417969 196.746094 C 551.828125 209.773438 539.378906 222.964844 526.933594 236.125 C 522.066406 241.269531 517.089844 246.320312 512.074219 251.265625 C 482.824219 280.132812 451.027344 306.128906 419.765625 332.695312 C 384.015625 363.082031 348.265625 393.460938 312.535156 423.847656 C 301.023438 433.625 289.535156 443.390625 278.023438 453.167969 C 271.046875 459.09375 264.058594 465.046875 257.078125 470.96875 C 256.820312 470.691406 256.539062 470.429688 256.28125 470.171875 C 268.96875 454.925781 281.652344 439.6875 294.648438 424.105469 C 293.25 423.945312 292.292969 423.773438 291.3125 423.730469 C 264.164062 423.019531 236.996094 422.273438 209.816406 421.574219 C 206.328125 421.5 202.816406 421.414062 199.316406 421.316406 C 198.027344 421.273438 196.550781 421.414062 195.410156 421.996094 C 188.742188 425.460938 182.164062 429.101562 175.402344 432.753906 C 176.101562 433.59375 176.359375 434.035156 176.726562 434.347656 C 179.375 436.695312 182.035156 439.03125 184.683594 441.367188 C 203.875 458.328125 223.082031 475.253906 242.199219 492.28125 C 244.953125 494.714844 247.808594 497.363281 249.519531 500.496094 C 259.8125 519.566406 269.785156 538.84375 279.929688 558.007812 C 282.976562 563.78125 286.195312 569.457031 289.480469 575.507812 C 293.175781 572.34375 296.222656 569.382812 299.636719 566.925781 C 302.53125 564.859375 303.371094 562.316406 303.671875 558.847656 C 305.730469 533.714844 308.359375 508.59375 310.039062 483.417969 C 310.480469 476.933594 313.191406 473.984375 318.320312 471.152344 C 367.808594 443.984375 415.921875 414.597656 462.871094 383.273438 C 468.019531 379.835938 473.21875 376.53125 478.667969 372.976562 C 500.734375 433.980469 522.539062 494.273438 544.484375 554.953125 C 547.523438 552.054688 549.75 549.480469 552.421875 547.488281 C 555.75 545.035156 556.707031 542.039062 556.921875 538.011719 C 558.019531 516.863281 559.496094 495.738281 560.777344 474.609375 C 564.191406 418.292969 567.539062 361.953125 571.105469 305.65625 C 571.285156 302.78125 572.816406 299.375 574.851562 297.375 C 575.3125 296.933594 575.765625 296.480469 576.230469 296.039062 C 584.769531 287.734375 593.640625 279.800781 602.429688 271.777344 C 614.296875 260.902344 626.25 250.089844 638.136719 239.226562 C 644.265625 233.679688 650.347656 228.089844 656.433594 222.492188 C 657.011719 221.953125 657.617188 221.414062 658.1875 220.875 C 664.59375 214.976562 670.957031 209.03125 677.300781 203.066406 C 688.015625 192.933594 697.167969 181.207031 702.917969 167.359375 C 709.066406 152.574219 703.84375 142.460938 688.359375 138.691406 Z M 537.410156 250.371094 C 537.171875 250.371094 536.9375 250.347656 536.710938 250.339844 C 533.058594 249.992188 530.207031 246.902344 530.207031 243.175781 C 530.207031 239.203125 533.414062 235.972656 537.410156 235.972656 C 539.585938 235.972656 541.535156 236.953125 542.859375 238.480469 C 543.957031 239.742188 544.59375 241.398438 544.59375 243.175781 C 544.59375 247.140625 541.371094 250.371094 537.410156 250.371094 Z M 555.480469 235.292969 C 551.503906 235.292969 548.273438 232.0625 548.273438 228.089844 L 548.273438 227.972656 C 548.316406 225.636719 549.449219 223.578125 551.203125 222.308594 C 552.378906 221.414062 553.863281 220.898438 555.46875 220.898438 C 559.441406 220.898438 562.671875 224.105469 562.671875 228.089844 C 562.683594 232.054688 559.441406 235.292969 555.480469 235.292969 Z M 571.632812 220.371094 C 567.667969 220.371094 564.4375 217.160156 564.4375 213.1875 C 564.4375 209.191406 567.667969 205.984375 571.632812 205.984375 C 575.605469 205.984375 578.835938 209.191406 578.835938 213.1875 C 578.835938 217.160156 575.605469 220.371094 571.632812 220.371094 Z M 587.601562 205.648438 C 583.628906 205.648438 580.398438 202.417969 580.398438 198.445312 C 580.398438 194.472656 583.628906 191.261719 587.601562 191.261719 C 591.585938 191.261719 594.792969 194.472656 594.792969 198.445312 C 594.792969 202.417969 591.585938 205.648438 587.601562 205.648438 Z M 604.152344 191.921875 C 600.179688 191.921875 596.949219 188.691406 596.949219 184.726562 C 596.949219 180.765625 600.179688 177.523438 604.152344 177.523438 C 608.125 177.523438 611.355469 180.753906 611.355469 184.726562 C 611.355469 188.699219 608.125 191.921875 604.152344 191.921875 Z M 620.90625 176.941406 C 616.914062 176.941406 613.703125 173.710938 613.703125 169.738281 C 613.703125 165.765625 616.914062 162.542969 620.90625 162.542969 C 624.878906 162.542969 628.109375 165.773438 628.109375 169.738281 C 628.109375 173.699219 624.878906 176.941406 620.90625 176.941406 Z M 620.90625 176.941406 " fill-opacity="1" fill-rule="evenodd"/><path fill="#ffffff" d="M 199.328125 421.328125 C 202.828125 421.425781 206.328125 421.511719 209.828125 421.597656 L 184.683594 441.378906 C 182.035156 439.03125 179.386719 436.695312 176.738281 434.355469 C 176.371094 434.035156 176.101562 433.605469 175.414062 432.765625 C 182.175781 429.113281 188.765625 425.496094 195.429688 422.015625 C 196.539062 421.445312 198.027344 421.304688 199.328125 421.328125 Z M 199.328125 421.328125 " fill-opacity="1" fill-rule="evenodd"/><path fill="#ffffff" d="M 435.144531 242.109375 C 436.242188 241.992188 437.328125 241.875 438.429688 241.734375 L 346.53125 314.054688 C 302.371094 304.113281 258.199219 294.152344 213.457031 284.074219 C 221.480469 277.171875 228.609375 270.292969 236.554688 264.617188 C 239.472656 262.527344 244.382812 263.152344 248.410156 262.699219 C 284.90625 258.652344 321.417969 254.613281 357.925781 250.585938 C 383.671875 247.753906 409.417969 245.019531 435.144531 242.109375 Z M 435.144531 242.109375 " fill-opacity="1" fill-rule="evenodd"/><path fill="#ffffff" d="M 563.136719 138.574219 C 556.769531 145.378906 550.363281 152.121094 543.859375 158.773438 C 539.628906 156.382812 535.34375 154.089844 531.011719 151.894531 C 486.089844 129.152344 436.113281 117.21875 385.320312 117.21875 C 299.074219 117.21875 217.980469 150.796875 157.019531 211.796875 C 96.019531 272.777344 62.453125 353.863281 62.453125 440.109375 C 62.453125 470.011719 66.523438 499.558594 74.566406 528.03125 C 66.351562 532.316406 58.210938 536.570312 50.027344 540.824219 C 40.464844 508.917969 35.316406 475.125 35.316406 440.109375 C 35.316406 246.796875 192.015625 90.09375 385.328125 90.09375 C 448.386719 90.09375 507.539062 106.773438 558.632812 135.957031 C 560.140625 136.820312 561.648438 137.703125 563.136719 138.574219 Z M 563.136719 138.574219 " fill-opacity="1" fill-rule="evenodd"/><path fill="#f5f5dc" d="M 514.097656 573.851562 C 468.417969 613.800781 417.71875 645.597656 361.457031 668.425781 C 320.171875 685.195312 277.507812 697.148438 233.433594 703.554688 C 191.015625 709.714844 148.296875 711.058594 105.699219 706.042969 C 82.707031 703.347656 59.988281 698.480469 37.148438 694.582031 C 36.179688 694.410156 35.242188 693.96875 33.476562 693.386719 C 38.859375 686.152344 43.707031 679.421875 48.808594 672.90625 C 49.640625 671.863281 51.695312 671.3125 53.183594 671.304688 C 119.480469 670.613281 183.746094 658.585938 246.289062 636.886719 C 302.261719 617.472656 353.960938 590.046875 400.988281 553.894531 C 429.941406 531.636719 457.164062 507.539062 480.984375 479.765625 C 481.285156 479.402344 481.707031 479.144531 482.664062 478.324219 C 484.539062 483.332031 486.304688 488.003906 488.039062 492.699219 C 497.234375 517.457031 506.375 542.246094 515.65625 566.96875 C 516.765625 569.875 516.671875 571.597656 514.097656 573.851562 Z M 514.097656 573.851562 " fill-opacity="1" fill-rule="evenodd"/><path fill="#ffffff" d="M 502.910156 234.25 L 401.480469 326.4375 C 383.132812 322.292969 364.835938 318.15625 346.519531 314.054688 C 302.371094 304.125 258.1875 294.164062 213.46875 284.085938 C 221.488281 277.183594 228.609375 270.300781 236.542969 264.617188 C 239.460938 262.527344 244.382812 263.164062 248.421875 262.699219 C 284.90625 258.652344 321.417969 254.625 357.925781 250.585938 C 383.683594 247.753906 409.429688 245.019531 435.144531 242.109375 C 436.242188 241.992188 437.339844 241.875 438.4375 241.722656 C 459.921875 239.300781 481.445312 236.769531 502.910156 234.25 Z M 502.910156 234.25 " fill-opacity="1" fill-rule="evenodd"/><g clip-path="url(#c3c762760b)"><path fill="#f5f5dc" d="M 247.140625 564.523438 C 205.371094 590.550781 161.382812 608.285156 114.9375 616.644531 C 105.214844 618.386719 95.359375 619.734375 85.410156 620.648438 C 65.597656 622.480469 45.34375 622.621094 24.625 621.015625 C 42.089844 615.996094 59.167969 610.234375 75.796875 603.65625 C 84.257812 600.316406 92.625 596.765625 100.863281 592.984375 C 143.882812 573.3125 183.757812 547.757812 220.035156 515.378906 C 229.210938 532.003906 238.03125 547.996094 247.140625 564.523438 Z M 247.140625 564.523438 " fill-opacity="1" fill-rule="evenodd"/></g><path fill="#ffffff" d="M 157.019531 211.796875 C 218 150.808594 299.085938 117.230469 385.328125 117.230469 C 441.035156 117.230469 495.703125 131.585938 543.859375 158.785156 C 550.363281 152.132812 556.761719 145.367188 563.136719 138.585938 C 511.027344 107.789062 450.242188 90.117188 385.328125 90.117188 C 192.015625 90.117188 35.316406 246.816406 35.316406 440.128906 C 35.316406 475.125 40.464844 508.929688 50.015625 540.8125 C 58.179688 536.570312 66.339844 532.328125 74.558594 528.042969 C 66.511719 499.570312 62.441406 470.023438 62.441406 440.128906 C 62.453125 353.875 96.027344 272.777344 157.019531 211.796875 Z M 157.019531 211.796875 " fill-opacity="1" fill-rule="evenodd"/><path fill="#ffffff" d="M 656.796875 214.40625 C 656.796875 217.140625 656.679688 219.851562 656.410156 222.523438 C 650.328125 228.132812 644.242188 233.710938 638.113281 239.257812 C 626.226562 250.132812 614.273438 260.945312 602.40625 271.808594 C 593.632812 279.832031 584.746094 287.769531 576.207031 296.070312 C 548.144531 294.476562 524.078125 276.699219 512.050781 251.285156 C 517.078125 246.34375 522.042969 241.292969 526.910156 236.144531 C 544.152344 217.914062 561.378906 199.621094 579.039062 181.808594 C 579.136719 181.710938 579.246094 181.605469 579.320312 181.527344 C 585.75 175.046875 592.402344 168.855469 599.445312 163.277344 C 607.144531 157.171875 615.328125 151.765625 624.222656 147.457031 C 643.929688 162.210938 656.796875 186.6875 656.796875 214.40625 Z M 656.796875 214.40625 " fill-opacity="1" fill-rule="evenodd"/><path fill="#ffffff" d="M 315.507812 421.328125 L 352.917969 431.363281 L 499.539062 356.425781 L 599.46875 163.277344 Z M 315.507812 421.328125 " fill-opacity="1" fill-rule="evenodd"/><g fill="#ffffff" fill-opacity="1"><g transform="translate(743.189927, 576.835275)"><g><path d="M 309.46875 -150.03125 C 309.46875 -142.007812 308.945312 -133.992188 307.90625 -125.984375 L 113.953125 -125.984375 C 115.003906 -109.953125 119.445312 -98.015625 127.28125 -90.171875 C 135.125 -82.328125 145.144531 -78.40625 157.34375 -78.40625 C 174.425781 -78.40625 186.625 -86.070312 193.9375 -101.40625 L 303.1875 -101.40625 C 298.664062 -81.195312 289.867188 -63.164062 276.796875 -47.3125 C 263.722656 -31.457031 247.253906 -19 227.390625 -9.9375 C 207.523438 -0.875 185.570312 3.65625 161.53125 3.65625 C 132.601562 3.65625 106.898438 -2.441406 84.421875 -14.640625 C 61.941406 -26.835938 44.34375 -44.257812 31.625 -66.90625 C 18.90625 -89.5625 12.546875 -116.222656 12.546875 -146.890625 C 12.546875 -177.554688 18.816406 -204.128906 31.359375 -226.609375 C 43.910156 -249.085938 61.425781 -266.425781 83.90625 -278.625 C 106.382812 -290.820312 132.257812 -296.921875 161.53125 -296.921875 C 190.457031 -296.921875 216.070312 -290.992188 238.375 -279.140625 C 260.675781 -267.296875 278.097656 -250.304688 290.640625 -228.171875 C 303.191406 -206.046875 309.46875 -180 309.46875 -150.03125 Z M 204.921875 -175.640625 C 204.921875 -188.191406 200.738281 -198.035156 192.375 -205.171875 C 184.007812 -212.316406 173.550781 -215.890625 161 -215.890625 C 148.457031 -215.890625 138.175781 -212.492188 130.15625 -205.703125 C 122.144531 -198.910156 116.921875 -188.890625 114.484375 -175.640625 Z M 204.921875 -175.640625 "/></g></g></g><g fill="#ffffff" fill-opacity="1"><g transform="translate(1065.188012, 576.835275)"><g><path d="M 212.234375 0 L 159.4375 -73.703125 L 117.625 0 L 5.234375 0 L 102.984375 -152.125 L 1.046875 -293.265625 L 116.046875 -293.265625 L 168.84375 -219.5625 L 211.1875 -293.265625 L 323.578125 -293.265625 L 223.734375 -143.75 L 327.234375 0 Z M 212.234375 0 "/></g></g></g><g fill="#ffffff" fill-opacity="1"><g transform="translate(1393.458803, 576.835275)"><g><path d="M 131.734375 -252.484375 C 139.742188 -266.078125 151.066406 -276.878906 165.703125 -284.890625 C 180.347656 -292.910156 197.601562 -296.921875 217.46875 -296.921875 C 240.8125 -296.921875 261.976562 -290.820312 280.96875 -278.625 C 299.96875 -266.425781 314.957031 -249 325.9375 -226.34375 C 336.914062 -203.695312 342.40625 -177.210938 342.40625 -146.890625 C 342.40625 -116.566406 336.914062 -89.992188 325.9375 -67.171875 C 314.957031 -44.347656 299.96875 -26.835938 280.96875 -14.640625 C 261.976562 -2.441406 240.8125 3.65625 217.46875 3.65625 C 197.601562 3.65625 180.4375 -0.347656 165.96875 -8.359375 C 151.507812 -16.378906 140.097656 -27.1875 131.734375 -40.78125 L 131.734375 140.09375 L 29.28125 140.09375 L 29.28125 -293.265625 L 131.734375 -293.265625 Z M 238.375 -146.890625 C 238.375 -166.054688 233.234375 -180.953125 222.953125 -191.578125 C 212.671875 -202.210938 200.035156 -207.53125 185.046875 -207.53125 C 170.066406 -207.53125 157.4375 -202.128906 147.15625 -191.328125 C 136.875 -180.523438 131.734375 -165.710938 131.734375 -146.890625 C 131.734375 -127.722656 136.875 -112.738281 147.15625 -101.9375 C 157.4375 -91.132812 170.066406 -85.734375 185.046875 -85.734375 C 200.035156 -85.734375 212.671875 -91.222656 222.953125 -102.203125 C 233.234375 -113.179688 238.375 -128.078125 238.375 -146.890625 Z M 238.375 -146.890625 "/></g></g></g><g fill="#ffffff" fill-opacity="1"><g transform="translate(1748.911244, 576.835275)"><g><path d="M 12.546875 -146.890625 C 12.546875 -177.210938 18.035156 -203.695312 29.015625 -226.34375 C 39.992188 -249 54.976562 -266.425781 73.96875 -278.625 C 92.957031 -290.820312 114.128906 -296.921875 137.484375 -296.921875 C 157.691406 -296.921875 175.113281 -292.910156 189.75 -284.890625 C 204.394531 -276.878906 215.722656 -266.078125 223.734375 -252.484375 L 223.734375 -293.265625 L 326.203125 -293.265625 L 326.203125 0 L 223.734375 0 L 223.734375 -40.78125 C 215.722656 -27.1875 204.3125 -16.378906 189.5 -8.359375 C 174.6875 -0.347656 157.347656 3.65625 137.484375 3.65625 C 114.128906 3.65625 92.957031 -2.441406 73.96875 -14.640625 C 54.976562 -26.835938 39.992188 -44.347656 29.015625 -67.171875 C 18.035156 -89.992188 12.546875 -116.566406 12.546875 -146.890625 Z M 223.734375 -146.890625 C 223.734375 -165.710938 218.59375 -180.523438 208.3125 -191.328125 C 198.03125 -202.128906 185.398438 -207.53125 170.421875 -207.53125 C 155.085938 -207.53125 142.363281 -202.210938 132.25 -191.578125 C 122.144531 -180.953125 117.09375 -166.054688 117.09375 -146.890625 C 117.09375 -128.078125 122.144531 -113.179688 132.25 -102.203125 C 142.363281 -91.222656 155.085938 -85.734375 170.421875 -85.734375 C 185.398438 -85.734375 198.03125 -91.132812 208.3125 -101.9375 C 218.59375 -112.738281 223.734375 -127.722656 223.734375 -146.890625 Z M 223.734375 -146.890625 "/></g></g></g><g fill="#ffffff" fill-opacity="1"><g transform="translate(2104.363686, 576.835275)"><g><path d="M 12.546875 -145.328125 C 12.546875 -174.253906 18.554688 -200.128906 30.578125 -222.953125 C 42.597656 -245.773438 58.628906 -263.632812 78.671875 -276.53125 C 98.710938 -289.425781 120.582031 -295.875 144.28125 -295.875 C 178.4375 -295.875 204.921875 -285.070312 223.734375 -263.46875 L 223.734375 -293.265625 L 326.203125 -293.265625 L 326.203125 140.09375 L 223.734375 140.09375 L 223.734375 -34.5 C 202.128906 -9.0625 175.46875 3.65625 143.75 3.65625 C 120.050781 3.65625 98.179688 -2.613281 78.140625 -15.15625 C 58.109375 -27.707031 42.164062 -45.304688 30.3125 -67.953125 C 18.46875 -90.609375 12.546875 -116.398438 12.546875 -145.328125 Z M 223.734375 -146.890625 C 223.734375 -166.410156 218.242188 -181.3125 207.265625 -191.59375 C 196.285156 -201.875 184.003906 -207.015625 170.421875 -207.015625 C 156.828125 -207.015625 144.539062 -201.695312 133.5625 -191.0625 C 122.582031 -180.4375 117.09375 -165.191406 117.09375 -145.328125 C 117.09375 -125.460938 122.492188 -110.5625 133.296875 -100.625 C 144.097656 -90.695312 156.472656 -85.734375 170.421875 -85.734375 C 184.003906 -85.734375 196.285156 -90.957031 207.265625 -101.40625 C 218.242188 -111.863281 223.734375 -127.023438 223.734375 -146.890625 Z M 223.734375 -146.890625 "/></g></g></g><g fill="#ffffff" fill-opacity="1"><g transform="translate(2459.816127, 576.835275)"><g><path d="M 78.9375 4.1875 C 60.8125 4.1875 46.257812 -0.773438 35.28125 -10.703125 C 24.300781 -20.640625 18.8125 -33.273438 18.8125 -48.609375 C 18.8125 -63.941406 24.300781 -76.660156 35.28125 -86.765625 C 46.257812 -96.878906 60.8125 -101.9375 78.9375 -101.9375 C 96.707031 -101.9375 111.082031 -96.878906 122.0625 -86.765625 C 133.039062 -76.660156 138.53125 -63.941406 138.53125 -48.609375 C 138.53125 -33.628906 133.039062 -21.082031 122.0625 -10.96875 C 111.082031 -0.863281 96.707031 4.1875 78.9375 4.1875 Z M 78.9375 4.1875 "/></g></g></g></svg>