<svg xmlns="http://www.w3.org/2000/svg" width="5000" height="1200" viewBox="0 0 5000 1200" version="1.1"><path d="" stroke="none" fill="#4483b4" fill-rule="evenodd"/><path d="M 3738 224.521 C 3660.955 231.703, 3597.618 253.503, 3538 293.359 C 3508.087 313.356, 3484.673 333.878, 3463.105 359 C 3410.868 419.847, 3381.614 489.537, 3373.903 571.500 C 3372.351 588.002, 3372.356 630.674, 3373.912 647 C 3378.815 698.432, 3391.539 742.766, 3414.092 787 C 3450.264 857.943, 3507.099 913.464, 3582 951.027 C 3620.414 970.291, 3666.518 984.500, 3712 991.092 L 3720.500 992.324 3744.500 1015.977 C 3779.206 1050.181, 3797.981 1066.645, 3825.925 1087.377 C 3875.057 1123.828, 3918.282 1142.258, 3975.319 1151.075 C 3992.455 1153.724, 4035.918 1154.820, 4054.640 1153.076 C 4105.486 1148.338, 4153.652 1129.103, 4191.675 1098.349 C 4202.408 1089.668, 4227.234 1064.321, 4226.799 1062.488 C 4226.447 1061.004, 4151.216 971, 4150.328 971 C 4149.995 971, 4146.277 974.292, 4142.066 978.315 C 4103.371 1015.284, 4055.843 1031.360, 4007.500 1023.830 C 3992.908 1021.557, 3974.230 1014.302, 3960.888 1005.723 C 3948.282 997.618, 3923.054 975.464, 3924.716 973.958 C 3925.147 973.567, 3928.650 972.231, 3932.500 970.988 C 3954.569 963.863, 3985.977 949.423, 4008.035 936.259 C 4090.049 887.317, 4151.192 807.028, 4176.139 715.518 C 4185.726 680.351, 4189.449 650.294, 4189.396 608.500 C 4189.346 569.016, 4186.571 545.381, 4177.956 511.068 C 4153.672 414.347, 4090.708 331.590, 4002.217 280.086 C 3946.975 247.933, 3891.803 230.773, 3823.577 224.522 C 3803.532 222.685, 3757.698 222.685, 3738 224.521 M 745 609.500 L 745 983.003 1109.638 982.751 L 1474.275 982.500 1562.152 854 C 1610.484 783.325, 1650.431 725.500, 1650.924 725.500 C 1651.417 725.500, 1692.061 783.325, 1741.243 854 L 1830.666 982.500 2012.833 982.753 L 2195 983.005 2195 880.089 L 2195 777.173 2289.250 776.734 C 2389.944 776.265, 2393.398 776.109, 2428 770.496 C 2506.359 757.785, 2572.209 723.516, 2612.569 674.445 C 2654.389 623.598, 2673.693 560.109, 2669.156 488.331 C 2666.233 442.078, 2655.805 405.894, 2635.487 371.500 C 2601.664 314.246, 2546.040 273.721, 2471.500 252.024 C 2452.154 246.394, 2432.124 242.391, 2405 238.736 C 2389.845 236.694, 2385.414 236.639, 2205.751 236.286 L 2022.003 235.925 2021.751 602.591 L 2021.500 969.258 1889 785.468 C 1816.125 684.384, 1755.674 600.410, 1754.665 598.860 L 1752.829 596.040 1880.585 419.270 C 1950.850 322.047, 2009.442 241.037, 2010.789 239.250 L 2013.237 236 1919.344 236 L 1825.450 236 1741.475 356.605 L 1657.500 477.210 1655.748 474.855 C 1654.784 473.560, 1616.282 419.400, 1570.189 354.500 L 1486.383 236.500 1115.691 236.249 L 745 235.997 745 609.500 M 2935.006 240.250 C 2933.972 242.588, 2859.090 410.550, 2768.604 613.500 L 2604.082 982.500 2692.702 982.755 C 2741.443 982.896, 2781.491 982.842, 2781.698 982.636 C 2781.904 982.429, 2796.842 946.539, 2814.892 902.880 L 2847.712 823.500 3021.045 823.500 L 3194.378 823.500 3227.334 903.250 L 3260.291 983 3351.229 983 C 3410.084 983, 3442.049 982.655, 3441.833 982.021 C 3441.650 981.483, 3366.575 813.422, 3275 608.553 L 3108.500 236.062 3022.694 236.031 L 2936.888 236 2935.006 240.250 M 1310 320.300 L 1310 375 1113.500 375 L 917 375 917 455.500 L 917 536 1090.500 536 L 1264 536 1264 603.500 L 1264 671 1090.500 671 L 917 671 917 757.500 L 917 844 1120.487 844 L 1323.974 844 1324.237 879.206 L 1324.500 914.412 1437.855 758.594 L 1551.210 602.776 1549.301 600.138 C 1548.251 598.687, 1494.360 523.250, 1429.543 432.500 C 1364.725 341.750, 1311.312 267.072, 1310.846 266.550 C 1310.381 266.028, 1310 290.215, 1310 320.300 M 3750 372.519 C 3682.416 380.936, 3625.141 415.045, 3588.828 468.500 C 3561.581 508.609, 3548.013 555.305, 3548.004 609 C 3547.997 651.227, 3555.788 686.983, 3572.517 721.500 C 3602.383 783.124, 3659.650 827.925, 3726.500 841.963 C 3756.478 848.258, 3793.286 849.209, 3822.991 844.454 C 3896.721 832.654, 3958.680 786.449, 3990.547 719.500 C 4000.592 698.397, 4006.689 678.589, 4011.171 652.500 C 4013.128 641.107, 4013.409 635.853, 4013.446 610 C 4013.491 579.228, 4012.721 570.717, 4007.933 549.037 C 3995.020 490.566, 3961.152 440.745, 3912.605 408.805 C 3886.063 391.343, 3853.459 378.705, 3822.526 373.889 C 3805.138 371.182, 3766.586 370.454, 3750 372.519 M 2195 506.500 L 2195 636 2262.750 635.995 C 2353.263 635.988, 2375.457 634.634, 2401.856 627.508 C 2442.982 616.406, 2472.647 591.551, 2485.487 557.439 C 2498.032 524.110, 2496.610 478.435, 2482.060 447.387 C 2467.087 415.435, 2437.082 393.032, 2396.593 383.571 C 2370.423 377.457, 2361.860 377, 2273.394 377 L 2195 377 2195 506.500 M 2963.192 547.525 C 2931.151 624.788, 2904.677 688.677, 2904.361 689.501 C 2903.852 690.828, 2917.328 691, 3021.500 691 C 3133.190 691, 3139.181 690.910, 3138.563 689.250 C 3136.314 683.201, 3022.561 408.361, 3022.063 407.774 C 3021.725 407.375, 2995.233 470.263, 2963.192 547.525 M 4254.500 784.685 C 4244.088 786.021, 4230.373 790.241, 4220.933 795.014 C 4201.011 805.086, 4181.224 826.534, 4173.894 846 C 4168.622 860.002, 4167.589 866.527, 4167.559 886 C 4167.528 906.826, 4168.883 914.474, 4175.305 929.685 C 4182.585 946.930, 4197.489 964.441, 4214 975.149 C 4231.523 986.512, 4243.221 989.941, 4267 990.681 C 4285.829 991.266, 4296.100 989.718, 4310.593 984.108 C 4326.082 978.113, 4343.795 964.123, 4355.044 949 C 4360.723 941.366, 4367.498 927.170, 4370.479 916.662 C 4375.124 900.288, 4375.386 874.872, 4371.086 857.868 C 4361.673 820.645, 4330.421 792.351, 4291.119 785.468 C 4283.488 784.131, 4262.337 783.679, 4254.500 784.685" stroke="none" fill="#3c7cb4" fill-rule="evenodd"/></svg>